<svg xmlns="http://www.w3.org/2000/svg" xmlns:svg="http://www.w3.org/2000/svg" id="svg2" width="200" height="200" version="1.1" xml:space="preserve"><metadata id="metadata8"/><defs id="defs6"><clipPath id="clipPath16" clipPathUnits="userSpaceOnUse"><path id="path18" d="M 0,270 268,270 268,0 0,0 0,270 z"/></clipPath><clipPath id="clipPath32" clipPathUnits="userSpaceOnUse"><path id="path34" d="M 0,270 268,270 268,0 0,0 0,270 z"/></clipPath><clipPath id="clipPath44" clipPathUnits="userSpaceOnUse"><path id="path46" d="M 0,270 268,270 268,0 0,0 0,270 z"/></clipPath></defs><g id="g10" transform="matrix(1.25,0,0,-1.25,-121.04875,281.04138)"><g id="g12" transform="matrix(1.1067885,0,0,1.1067885,29.909078,-3.6595629)" style="fill:red;fill-opacity:1"><g id="g14" clip-path="url(#clipPath16)" style="fill:red;fill-opacity:1;stroke:#000;stroke-opacity:1"><g id="g20" transform="matrix(0.99700265,0,0,0.99700265,192.24253,65.009251)" style="fill:red;fill-opacity:1;stroke:#0645ad;stroke-width:7.37735747999999969;stroke-miterlimit:4;stroke-opacity:1;stroke-dasharray:none"><path style="fill:red;fill-opacity:1;fill-rule:nonzero;stroke:#0645ad;stroke-width:7.37735747999999969;stroke-miterlimit:4;stroke-opacity:1;stroke-dasharray:none" id="path22" d="m -59.211895,0 c 0.985,19.151 11.538,50.256 26.833,69.833 8.333,10.667 12.167,21.063 12.167,27.37 0,21.907 -17.551,39.667 -39.2,39.667 l -10e-4,0 c -21.65,0 -39.2,-17.76 -39.2,-39.667 0,-6.307 3.834,-16.703 12.167,-27.37 15.295,-19.577 25.847,-50.682 26.833,-69.833 l 0.401,0 z"/></g></g></g><g id="g28" transform="matrix(0.8884951,0,0,0.8884951,54.874641,29.422766)"><g id="g30" clip-path="url(#clipPath32)"><g id="g36" transform="translate(153.9639,165.0005)"><path style="fill:#000;fill-opacity:1;fill-rule:nonzero;stroke:none" id="path38" d="m 0,0 c 0,-9.182 -7.443,-16.625 -16.625,-16.625 -9.182,0 -16.625,7.443 -16.625,16.625 0,9.182 7.443,16.625 16.625,16.625 C -7.443,16.625 0,9.182 0,0"/></g></g></g></g></svg>